<mxfile host="app.diagrams.net" agent="Mozilla/5.0 (Macintosh; Intel Mac OS X 10_15_7) AppleWebKit/537.36 (KHTML, like Gecko) Chrome/134.0.0.0 Safari/537.36" version="26.2.9">
  <diagram name="Page-1" id="2YBvvXClWsGukQMizWep">
    <mxGraphModel dx="3089" dy="294" grid="0" gridSize="10" guides="1" tooltips="1" connect="1" arrows="1" fold="1" page="0" pageScale="1" pageWidth="850" pageHeight="1100" math="0" shadow="0">
      <root>
        <mxCell id="0" />
        <mxCell id="1" parent="0" />
        <mxCell id="8lU-gqcf_Vouc8r6jL8J-165" value="" style="shape=umlLifeline;perimeter=lifelinePerimeter;whiteSpace=wrap;html=1;container=1;dropTarget=0;collapsible=0;recursiveResize=0;outlineConnect=0;portConstraint=eastwest;newEdgeStyle={&quot;curved&quot;:0,&quot;rounded&quot;:0};participant=umlActor;strokeColor=#457B9D;fontColor=#1D3557;fillColor=#A8DADC;" vertex="1" parent="1">
          <mxGeometry x="272" y="1080" width="20" height="1023" as="geometry" />
        </mxCell>
        <mxCell id="8lU-gqcf_Vouc8r6jL8J-222" value="" style="html=1;points=[[0,0,0,0,5],[0,1,0,0,-5],[1,0,0,0,5],[1,1,0,0,-5]];perimeter=orthogonalPerimeter;outlineConnect=0;targetShapes=umlLifeline;portConstraint=eastwest;newEdgeStyle={&quot;curved&quot;:0,&quot;rounded&quot;:0};strokeColor=#457B9D;fontColor=#1D3557;fillColor=#A8DADC;" vertex="1" parent="8lU-gqcf_Vouc8r6jL8J-165">
          <mxGeometry x="5" y="382" width="10" height="101" as="geometry" />
        </mxCell>
        <mxCell id="8lU-gqcf_Vouc8r6jL8J-166" value="" style="shape=umlLifeline;perimeter=lifelinePerimeter;whiteSpace=wrap;html=1;container=1;dropTarget=0;collapsible=0;recursiveResize=0;outlineConnect=0;portConstraint=eastwest;newEdgeStyle={&quot;curved&quot;:0,&quot;rounded&quot;:0};participant=umlActor;strokeColor=#457B9D;fontColor=#1D3557;fillColor=#A8DADC;" vertex="1" parent="1">
          <mxGeometry x="352" y="1080" width="20" height="1021" as="geometry" />
        </mxCell>
        <mxCell id="8lU-gqcf_Vouc8r6jL8J-236" value="" style="html=1;points=[[0,0,0,0,5],[0,1,0,0,-5],[1,0,0,0,5],[1,1,0,0,-5]];perimeter=orthogonalPerimeter;outlineConnect=0;targetShapes=umlLifeline;portConstraint=eastwest;newEdgeStyle={&quot;curved&quot;:0,&quot;rounded&quot;:0};strokeColor=#457B9D;fontColor=#1D3557;fillColor=#A8DADC;" vertex="1" parent="8lU-gqcf_Vouc8r6jL8J-166">
          <mxGeometry x="5" y="846" width="10" height="94" as="geometry" />
        </mxCell>
        <mxCell id="8lU-gqcf_Vouc8r6jL8J-167" value="" style="shape=umlLifeline;perimeter=lifelinePerimeter;whiteSpace=wrap;html=1;container=1;dropTarget=0;collapsible=0;recursiveResize=0;outlineConnect=0;portConstraint=eastwest;newEdgeStyle={&quot;curved&quot;:0,&quot;rounded&quot;:0};participant=umlBoundary;strokeColor=#457B9D;fontColor=#1D3557;fillColor=#A8DADC;" vertex="1" parent="1">
          <mxGeometry x="561" y="1082" width="50" height="1021" as="geometry" />
        </mxCell>
        <mxCell id="8lU-gqcf_Vouc8r6jL8J-214" value="" style="html=1;points=[[0,0,0,0,5],[0,1,0,0,-5],[1,0,0,0,5],[1,1,0,0,-5]];perimeter=orthogonalPerimeter;outlineConnect=0;targetShapes=umlLifeline;portConstraint=eastwest;newEdgeStyle={&quot;curved&quot;:0,&quot;rounded&quot;:0};strokeColor=#457B9D;fontColor=#1D3557;fillColor=#A8DADC;" vertex="1" parent="8lU-gqcf_Vouc8r6jL8J-167">
          <mxGeometry x="20" y="61" width="10" height="25" as="geometry" />
        </mxCell>
        <mxCell id="8lU-gqcf_Vouc8r6jL8J-225" value="" style="html=1;points=[[0,0,0,0,5],[0,1,0,0,-5],[1,0,0,0,5],[1,1,0,0,-5]];perimeter=orthogonalPerimeter;outlineConnect=0;targetShapes=umlLifeline;portConstraint=eastwest;newEdgeStyle={&quot;curved&quot;:0,&quot;rounded&quot;:0};strokeColor=#457B9D;fontColor=#1D3557;fillColor=#A8DADC;" vertex="1" parent="8lU-gqcf_Vouc8r6jL8J-167">
          <mxGeometry x="20" y="534" width="10" height="34" as="geometry" />
        </mxCell>
        <mxCell id="8lU-gqcf_Vouc8r6jL8J-235" value="" style="html=1;points=[[0,0,0,0,5],[0,1,0,0,-5],[1,0,0,0,5],[1,1,0,0,-5]];perimeter=orthogonalPerimeter;outlineConnect=0;targetShapes=umlLifeline;portConstraint=eastwest;newEdgeStyle={&quot;curved&quot;:0,&quot;rounded&quot;:0};strokeColor=#457B9D;fontColor=#1D3557;fillColor=#A8DADC;" vertex="1" parent="8lU-gqcf_Vouc8r6jL8J-167">
          <mxGeometry x="20" y="844" width="10" height="95" as="geometry" />
        </mxCell>
        <mxCell id="8lU-gqcf_Vouc8r6jL8J-168" value="" style="shape=umlLifeline;perimeter=lifelinePerimeter;whiteSpace=wrap;html=1;container=1;dropTarget=0;collapsible=0;recursiveResize=0;outlineConnect=0;portConstraint=eastwest;newEdgeStyle={&quot;curved&quot;:0,&quot;rounded&quot;:0};participant=umlControl;strokeColor=#457B9D;fontColor=#1D3557;fillColor=#A8DADC;" vertex="1" parent="1">
          <mxGeometry x="920" y="1074" width="40" height="1028" as="geometry" />
        </mxCell>
        <mxCell id="8lU-gqcf_Vouc8r6jL8J-215" value="" style="html=1;points=[[0,0,0,0,5],[0,1,0,0,-5],[1,0,0,0,5],[1,1,0,0,-5]];perimeter=orthogonalPerimeter;outlineConnect=0;targetShapes=umlLifeline;portConstraint=eastwest;newEdgeStyle={&quot;curved&quot;:0,&quot;rounded&quot;:0};strokeColor=#457B9D;fontColor=#1D3557;fillColor=#A8DADC;" vertex="1" parent="8lU-gqcf_Vouc8r6jL8J-168">
          <mxGeometry x="15" y="92" width="10" height="72" as="geometry" />
        </mxCell>
        <mxCell id="8lU-gqcf_Vouc8r6jL8J-216" value="" style="html=1;points=[[0,0,0,0,5],[0,1,0,0,-5],[1,0,0,0,5],[1,1,0,0,-5]];perimeter=orthogonalPerimeter;outlineConnect=0;targetShapes=umlLifeline;portConstraint=eastwest;newEdgeStyle={&quot;curved&quot;:0,&quot;rounded&quot;:0};strokeColor=#457B9D;fontColor=#1D3557;fillColor=#A8DADC;" vertex="1" parent="8lU-gqcf_Vouc8r6jL8J-168">
          <mxGeometry x="15" y="239" width="10" height="107" as="geometry" />
        </mxCell>
        <mxCell id="8lU-gqcf_Vouc8r6jL8J-217" value="" style="html=1;points=[[0,0,0,0,5],[0,1,0,0,-5],[1,0,0,0,5],[1,1,0,0,-5]];perimeter=orthogonalPerimeter;outlineConnect=0;targetShapes=umlLifeline;portConstraint=eastwest;newEdgeStyle={&quot;curved&quot;:0,&quot;rounded&quot;:0};strokeColor=#457B9D;fontColor=#1D3557;fillColor=#A8DADC;" vertex="1" parent="8lU-gqcf_Vouc8r6jL8J-168">
          <mxGeometry x="19" y="239" width="10" height="8" as="geometry" />
        </mxCell>
        <mxCell id="8lU-gqcf_Vouc8r6jL8J-218" value="" style="html=1;points=[[0,0,0,0,5],[0,1,0,0,-5],[1,0,0,0,5],[1,1,0,0,-5]];perimeter=orthogonalPerimeter;outlineConnect=0;targetShapes=umlLifeline;portConstraint=eastwest;newEdgeStyle={&quot;curved&quot;:0,&quot;rounded&quot;:0};strokeColor=#457B9D;fontColor=#1D3557;fillColor=#A8DADC;" vertex="1" parent="8lU-gqcf_Vouc8r6jL8J-168">
          <mxGeometry x="19" y="273" width="10" height="6" as="geometry" />
        </mxCell>
        <mxCell id="8lU-gqcf_Vouc8r6jL8J-219" value="" style="html=1;points=[[0,0,0,0,5],[0,1,0,0,-5],[1,0,0,0,5],[1,1,0,0,-5]];perimeter=orthogonalPerimeter;outlineConnect=0;targetShapes=umlLifeline;portConstraint=eastwest;newEdgeStyle={&quot;curved&quot;:0,&quot;rounded&quot;:0};strokeColor=#457B9D;fontColor=#1D3557;fillColor=#A8DADC;" vertex="1" parent="8lU-gqcf_Vouc8r6jL8J-168">
          <mxGeometry x="19" y="309" width="10" height="6" as="geometry" />
        </mxCell>
        <mxCell id="8lU-gqcf_Vouc8r6jL8J-220" value="" style="html=1;points=[[0,0,0,0,5],[0,1,0,0,-5],[1,0,0,0,5],[1,1,0,0,-5]];perimeter=orthogonalPerimeter;outlineConnect=0;targetShapes=umlLifeline;portConstraint=eastwest;newEdgeStyle={&quot;curved&quot;:0,&quot;rounded&quot;:0};strokeColor=#457B9D;fontColor=#1D3557;fillColor=#A8DADC;" vertex="1" parent="8lU-gqcf_Vouc8r6jL8J-168">
          <mxGeometry x="19" y="338" width="10" height="6" as="geometry" />
        </mxCell>
        <mxCell id="8lU-gqcf_Vouc8r6jL8J-226" value="" style="html=1;points=[[0,0,0,0,5],[0,1,0,0,-5],[1,0,0,0,5],[1,1,0,0,-5]];perimeter=orthogonalPerimeter;outlineConnect=0;targetShapes=umlLifeline;portConstraint=eastwest;newEdgeStyle={&quot;curved&quot;:0,&quot;rounded&quot;:0};strokeColor=#457B9D;fontColor=#1D3557;fillColor=#A8DADC;" vertex="1" parent="8lU-gqcf_Vouc8r6jL8J-168">
          <mxGeometry x="15" y="574" width="10" height="34" as="geometry" />
        </mxCell>
        <mxCell id="8lU-gqcf_Vouc8r6jL8J-230" value="" style="html=1;points=[[0,0,0,0,5],[0,1,0,0,-5],[1,0,0,0,5],[1,1,0,0,-5]];perimeter=orthogonalPerimeter;outlineConnect=0;targetShapes=umlLifeline;portConstraint=eastwest;newEdgeStyle={&quot;curved&quot;:0,&quot;rounded&quot;:0};strokeColor=#457B9D;fontColor=#1D3557;fillColor=#A8DADC;" vertex="1" parent="8lU-gqcf_Vouc8r6jL8J-168">
          <mxGeometry x="15" y="706" width="10" height="122" as="geometry" />
        </mxCell>
        <mxCell id="8lU-gqcf_Vouc8r6jL8J-233" value="" style="html=1;points=[[0,0,0,0,5],[0,1,0,0,-5],[1,0,0,0,5],[1,1,0,0,-5]];perimeter=orthogonalPerimeter;outlineConnect=0;targetShapes=umlLifeline;portConstraint=eastwest;newEdgeStyle={&quot;curved&quot;:0,&quot;rounded&quot;:0};strokeColor=#457B9D;fontColor=#1D3557;fillColor=#A8DADC;" vertex="1" parent="8lU-gqcf_Vouc8r6jL8J-168">
          <mxGeometry x="21" y="785" width="10" height="8" as="geometry" />
        </mxCell>
        <mxCell id="8lU-gqcf_Vouc8r6jL8J-234" value="" style="html=1;points=[[0,0,0,0,5],[0,1,0,0,-5],[1,0,0,0,5],[1,1,0,0,-5]];perimeter=orthogonalPerimeter;outlineConnect=0;targetShapes=umlLifeline;portConstraint=eastwest;newEdgeStyle={&quot;curved&quot;:0,&quot;rounded&quot;:0};strokeColor=#457B9D;fontColor=#1D3557;fillColor=#A8DADC;" vertex="1" parent="8lU-gqcf_Vouc8r6jL8J-168">
          <mxGeometry x="21" y="820" width="10" height="8" as="geometry" />
        </mxCell>
        <mxCell id="8lU-gqcf_Vouc8r6jL8J-170" value="" style="shape=umlLifeline;perimeter=lifelinePerimeter;whiteSpace=wrap;html=1;container=1;dropTarget=0;collapsible=0;recursiveResize=0;outlineConnect=0;portConstraint=eastwest;newEdgeStyle={&quot;curved&quot;:0,&quot;rounded&quot;:0};participant=umlEntity;strokeColor=#457B9D;fontColor=#1D3557;fillColor=#A8DADC;" vertex="1" parent="1">
          <mxGeometry x="1122" y="1084" width="40" height="1021" as="geometry" />
        </mxCell>
        <mxCell id="8lU-gqcf_Vouc8r6jL8J-243" value="" style="html=1;points=[[0,0,0,0,5],[0,1,0,0,-5],[1,0,0,0,5],[1,1,0,0,-5]];perimeter=orthogonalPerimeter;outlineConnect=0;targetShapes=umlLifeline;portConstraint=eastwest;newEdgeStyle={&quot;curved&quot;:0,&quot;rounded&quot;:0};strokeColor=#457B9D;fontColor=#1D3557;fillColor=#A8DADC;" vertex="1" parent="8lU-gqcf_Vouc8r6jL8J-170">
          <mxGeometry x="15" y="263" width="10" height="21" as="geometry" />
        </mxCell>
        <mxCell id="8lU-gqcf_Vouc8r6jL8J-171" value="" style="shape=umlLifeline;perimeter=lifelinePerimeter;whiteSpace=wrap;html=1;container=1;dropTarget=0;collapsible=0;recursiveResize=0;outlineConnect=0;portConstraint=eastwest;newEdgeStyle={&quot;curved&quot;:0,&quot;rounded&quot;:0};participant=umlEntity;strokeColor=#457B9D;fontColor=#1D3557;fillColor=#A8DADC;" vertex="1" parent="1">
          <mxGeometry x="1258" y="1082" width="40" height="1020" as="geometry" />
        </mxCell>
        <mxCell id="8lU-gqcf_Vouc8r6jL8J-227" value="" style="html=1;points=[[0,0,0,0,5],[0,1,0,0,-5],[1,0,0,0,5],[1,1,0,0,-5]];perimeter=orthogonalPerimeter;outlineConnect=0;targetShapes=umlLifeline;portConstraint=eastwest;newEdgeStyle={&quot;curved&quot;:0,&quot;rounded&quot;:0};strokeColor=#457B9D;fontColor=#1D3557;fillColor=#A8DADC;" vertex="1" parent="8lU-gqcf_Vouc8r6jL8J-171">
          <mxGeometry x="15" y="595.5" width="10" height="45.5" as="geometry" />
        </mxCell>
        <mxCell id="8lU-gqcf_Vouc8r6jL8J-242" value="" style="html=1;points=[[0,0,0,0,5],[0,1,0,0,-5],[1,0,0,0,5],[1,1,0,0,-5]];perimeter=orthogonalPerimeter;outlineConnect=0;targetShapes=umlLifeline;portConstraint=eastwest;newEdgeStyle={&quot;curved&quot;:0,&quot;rounded&quot;:0};strokeColor=#457B9D;fontColor=#1D3557;fillColor=#A8DADC;" vertex="1" parent="8lU-gqcf_Vouc8r6jL8J-171">
          <mxGeometry x="15" y="298" width="10" height="21" as="geometry" />
        </mxCell>
        <mxCell id="8lU-gqcf_Vouc8r6jL8J-172" value="" style="shape=umlLifeline;perimeter=lifelinePerimeter;whiteSpace=wrap;html=1;container=1;dropTarget=0;collapsible=0;recursiveResize=0;outlineConnect=0;portConstraint=eastwest;newEdgeStyle={&quot;curved&quot;:0,&quot;rounded&quot;:0};participant=umlEntity;strokeColor=#457B9D;fontColor=#1D3557;fillColor=#A8DADC;" vertex="1" parent="1">
          <mxGeometry x="1406" y="1078" width="40" height="1026" as="geometry" />
        </mxCell>
        <mxCell id="8lU-gqcf_Vouc8r6jL8J-240" value="" style="html=1;points=[[0,0,0,0,5],[0,1,0,0,-5],[1,0,0,0,5],[1,1,0,0,-5]];perimeter=orthogonalPerimeter;outlineConnect=0;targetShapes=umlLifeline;portConstraint=eastwest;newEdgeStyle={&quot;curved&quot;:0,&quot;rounded&quot;:0};strokeColor=#457B9D;fontColor=#1D3557;fillColor=#A8DADC;" vertex="1" parent="8lU-gqcf_Vouc8r6jL8J-172">
          <mxGeometry x="16" y="233" width="10" height="38" as="geometry" />
        </mxCell>
        <mxCell id="8lU-gqcf_Vouc8r6jL8J-173" value="" style="shape=umlLifeline;perimeter=lifelinePerimeter;whiteSpace=wrap;html=1;container=1;dropTarget=0;collapsible=0;recursiveResize=0;outlineConnect=0;portConstraint=eastwest;newEdgeStyle={&quot;curved&quot;:0,&quot;rounded&quot;:0};participant=umlEntity;strokeColor=#457B9D;fontColor=#1D3557;fillColor=#A8DADC;" vertex="1" parent="1">
          <mxGeometry x="1554" y="1080" width="40" height="1023" as="geometry" />
        </mxCell>
        <mxCell id="8lU-gqcf_Vouc8r6jL8J-174" value="" style="shape=umlLifeline;perimeter=lifelinePerimeter;whiteSpace=wrap;html=1;container=1;dropTarget=0;collapsible=0;recursiveResize=0;outlineConnect=0;portConstraint=eastwest;newEdgeStyle={&quot;curved&quot;:0,&quot;rounded&quot;:0};participant=umlEntity;strokeColor=#457B9D;fontColor=#1D3557;fillColor=#A8DADC;" vertex="1" parent="1">
          <mxGeometry x="1680" y="1082" width="40" height="1022" as="geometry" />
        </mxCell>
        <mxCell id="8lU-gqcf_Vouc8r6jL8J-247" value="" style="html=1;points=[[0,0,0,0,5],[0,1,0,0,-5],[1,0,0,0,5],[1,1,0,0,-5]];perimeter=orthogonalPerimeter;outlineConnect=0;targetShapes=umlLifeline;portConstraint=eastwest;newEdgeStyle={&quot;curved&quot;:0,&quot;rounded&quot;:0};strokeColor=#457B9D;fontColor=#1D3557;fillColor=#A8DADC;" vertex="1" parent="8lU-gqcf_Vouc8r6jL8J-174">
          <mxGeometry x="15" y="704" width="10" height="32" as="geometry" />
        </mxCell>
        <mxCell id="8lU-gqcf_Vouc8r6jL8J-176" value="" style="shape=umlLifeline;perimeter=lifelinePerimeter;whiteSpace=wrap;html=1;container=1;dropTarget=0;collapsible=0;recursiveResize=0;outlineConnect=0;portConstraint=eastwest;newEdgeStyle={&quot;curved&quot;:0,&quot;rounded&quot;:0};participant=umlBoundary;strokeColor=#457B9D;fontColor=#1D3557;fillColor=#A8DADC;" vertex="1" parent="1">
          <mxGeometry x="1829" y="1080" width="50" height="1025" as="geometry" />
        </mxCell>
        <mxCell id="8lU-gqcf_Vouc8r6jL8J-177" value="" style="shape=umlLifeline;perimeter=lifelinePerimeter;whiteSpace=wrap;html=1;container=1;dropTarget=0;collapsible=0;recursiveResize=0;outlineConnect=0;portConstraint=eastwest;newEdgeStyle={&quot;curved&quot;:0,&quot;rounded&quot;:0};participant=umlEntity;strokeColor=#457B9D;fontColor=#1D3557;fillColor=#A8DADC;" vertex="1" parent="1">
          <mxGeometry x="2002" y="1080" width="40" height="1024" as="geometry" />
        </mxCell>
        <mxCell id="8lU-gqcf_Vouc8r6jL8J-178" value="Professor" style="text;html=1;align=center;verticalAlign=middle;resizable=0;points=[];autosize=1;strokeColor=none;fillColor=none;fontColor=#1D3557;" vertex="1" parent="1">
          <mxGeometry x="240" y="1055" width="69" height="26" as="geometry" />
        </mxCell>
        <mxCell id="8lU-gqcf_Vouc8r6jL8J-179" value="Aluno" style="text;html=1;align=center;verticalAlign=middle;resizable=0;points=[];autosize=1;strokeColor=none;fillColor=none;fontColor=#1D3557;" vertex="1" parent="1">
          <mxGeometry x="338.5" y="1054" width="49" height="26" as="geometry" />
        </mxCell>
        <mxCell id="8lU-gqcf_Vouc8r6jL8J-180" value=":TelaSistema" style="text;html=1;align=center;verticalAlign=middle;resizable=0;points=[];autosize=1;strokeColor=none;fillColor=none;fontColor=#1D3557;" vertex="1" parent="1">
          <mxGeometry x="542.5" y="1052" width="87" height="26" as="geometry" />
        </mxCell>
        <mxCell id="8lU-gqcf_Vouc8r6jL8J-181" value=":ControleTransacao" style="text;html=1;align=center;verticalAlign=middle;resizable=0;points=[];autosize=1;strokeColor=none;fillColor=none;fontColor=#1D3557;" vertex="1" parent="1">
          <mxGeometry x="878.5" y="1044" width="123" height="26" as="geometry" />
        </mxCell>
        <mxCell id="8lU-gqcf_Vouc8r6jL8J-182" value=":Professor" style="text;html=1;align=center;verticalAlign=middle;resizable=0;points=[];autosize=1;strokeColor=none;fillColor=none;fontColor=#1D3557;" vertex="1" parent="1">
          <mxGeometry x="1105.5" y="1048" width="73" height="26" as="geometry" />
        </mxCell>
        <mxCell id="8lU-gqcf_Vouc8r6jL8J-183" value=":Aluno" style="text;html=1;align=center;verticalAlign=middle;resizable=0;points=[];autosize=1;strokeColor=none;fillColor=none;fontColor=#1D3557;" vertex="1" parent="1">
          <mxGeometry x="1252" y="1052" width="52" height="26" as="geometry" />
        </mxCell>
        <mxCell id="8lU-gqcf_Vouc8r6jL8J-184" value=":Transacao" style="text;html=1;align=center;verticalAlign=middle;resizable=0;points=[];autosize=1;strokeColor=none;fillColor=none;fontColor=#1D3557;" vertex="1" parent="1">
          <mxGeometry x="1387" y="1054" width="78" height="26" as="geometry" />
        </mxCell>
        <mxCell id="8lU-gqcf_Vouc8r6jL8J-185" value=":Vantagem" style="text;html=1;align=center;verticalAlign=middle;resizable=0;points=[];autosize=1;strokeColor=none;fillColor=none;fontColor=#1D3557;" vertex="1" parent="1">
          <mxGeometry x="1536.5" y="1055" width="75" height="26" as="geometry" />
        </mxCell>
        <mxCell id="8lU-gqcf_Vouc8r6jL8J-186" value=":Cupom" style="text;html=1;align=center;verticalAlign=middle;resizable=0;points=[];autosize=1;strokeColor=none;fillColor=none;fontColor=#1D3557;" vertex="1" parent="1">
          <mxGeometry x="1670" y="1055" width="60" height="26" as="geometry" />
        </mxCell>
        <mxCell id="8lU-gqcf_Vouc8r6jL8J-187" value=":EmailService" style="text;html=1;align=center;verticalAlign=middle;resizable=0;points=[];autosize=1;strokeColor=none;fillColor=none;fontColor=#1D3557;" vertex="1" parent="1">
          <mxGeometry x="1808.5" y="1054" width="91" height="26" as="geometry" />
        </mxCell>
        <mxCell id="8lU-gqcf_Vouc8r6jL8J-188" value=":Empresa" style="text;html=1;align=center;verticalAlign=middle;resizable=0;points=[];autosize=1;strokeColor=none;fillColor=none;fontColor=#1D3557;" vertex="1" parent="1">
          <mxGeometry x="1985" y="1056" width="69" height="26" as="geometry" />
        </mxCell>
        <mxCell id="8lU-gqcf_Vouc8r6jL8J-189" value="1. enviaMoedas(alunoID, valor, mensagem)" style="html=1;verticalAlign=bottom;startArrow=oval;startFill=1;endArrow=block;startSize=8;curved=0;rounded=0;strokeColor=#457B9D;fontColor=#1D3557;fillColor=#A8DADC;" edge="1" parent="1" target="8lU-gqcf_Vouc8r6jL8J-214">
          <mxGeometry width="60" relative="1" as="geometry">
            <mxPoint x="285" y="1145" as="sourcePoint" />
            <mxPoint x="345" y="1145" as="targetPoint" />
          </mxGeometry>
        </mxCell>
        <mxCell id="8lU-gqcf_Vouc8r6jL8J-190" value="1.1 processaEnvioDeMoedas(alunoID, valor, mensagem)" style="html=1;verticalAlign=bottom;endArrow=block;curved=0;rounded=0;strokeColor=#457B9D;fontColor=#1D3557;fillColor=#A8DADC;" edge="1" parent="1">
          <mxGeometry width="80" relative="1" as="geometry">
            <mxPoint x="587" y="1167" as="sourcePoint" />
            <mxPoint x="934" y="1167" as="targetPoint" />
          </mxGeometry>
        </mxCell>
        <mxCell id="8lU-gqcf_Vouc8r6jL8J-191" value="1.2 validarSaldo(valor)" style="html=1;verticalAlign=bottom;endArrow=block;curved=0;rounded=0;strokeColor=#457B9D;fontColor=#1D3557;fillColor=#A8DADC;" edge="1" parent="1" target="8lU-gqcf_Vouc8r6jL8J-170">
          <mxGeometry width="80" relative="1" as="geometry">
            <mxPoint x="945" y="1192" as="sourcePoint" />
            <mxPoint x="1021" y="1193" as="targetPoint" />
          </mxGeometry>
        </mxCell>
        <mxCell id="8lU-gqcf_Vouc8r6jL8J-193" value="1.2.1 saldoValido/saldoInvalido" style="html=1;verticalAlign=bottom;endArrow=open;dashed=1;endSize=8;curved=0;rounded=0;strokeColor=#457B9D;fontColor=#1D3557;fillColor=#A8DADC;" edge="1" parent="1" source="8lU-gqcf_Vouc8r6jL8J-170">
          <mxGeometry relative="1" as="geometry">
            <mxPoint x="1020" y="1235" as="sourcePoint" />
            <mxPoint x="946" y="1234" as="targetPoint" />
          </mxGeometry>
        </mxCell>
        <mxCell id="8lU-gqcf_Vouc8r6jL8J-194" value="opt [saldoValido]" style="shape=umlFrame;whiteSpace=wrap;html=1;pointerEvents=0;strokeColor=#457B9D;fontColor=#1D3557;fillColor=#A8DADC;width=189;height=31;" vertex="1" parent="1">
          <mxGeometry x="221" y="1293" width="1729" height="200" as="geometry" />
        </mxCell>
        <mxCell id="8lU-gqcf_Vouc8r6jL8J-195" value="1.2.2&amp;nbsp;criarTransacao(professorId, alunoId, quantidade, mensagem, tipo=ENVIO)" style="html=1;verticalAlign=bottom;endArrow=block;curved=0;rounded=0;strokeColor=#457B9D;fontColor=#1D3557;fillColor=#A8DADC;" edge="1" parent="1" source="8lU-gqcf_Vouc8r6jL8J-217" target="8lU-gqcf_Vouc8r6jL8J-172">
          <mxGeometry width="80" relative="1" as="geometry">
            <mxPoint x="961" y="1315" as="sourcePoint" />
            <mxPoint x="1020" y="1315" as="targetPoint" />
          </mxGeometry>
        </mxCell>
        <mxCell id="8lU-gqcf_Vouc8r6jL8J-196" value="1.3 debitarSaldo(quantidade)" style="html=1;verticalAlign=bottom;endArrow=block;curved=0;rounded=0;strokeColor=#457B9D;fontColor=#1D3557;fillColor=#A8DADC;exitX=1;exitY=1;exitDx=0;exitDy=-5;exitPerimeter=0;" edge="1" parent="1" source="8lU-gqcf_Vouc8r6jL8J-218" target="8lU-gqcf_Vouc8r6jL8J-170">
          <mxGeometry width="80" relative="1" as="geometry">
            <mxPoint x="961" y="1351" as="sourcePoint" />
            <mxPoint x="1021" y="1351" as="targetPoint" />
          </mxGeometry>
        </mxCell>
        <mxCell id="8lU-gqcf_Vouc8r6jL8J-197" value="1.4 creditarSaldo(quantidade)" style="html=1;verticalAlign=bottom;endArrow=block;curved=0;rounded=0;strokeColor=#457B9D;fontColor=#1D3557;fillColor=#A8DADC;exitX=1;exitY=1;exitDx=0;exitDy=-5;exitPerimeter=0;" edge="1" parent="1" source="8lU-gqcf_Vouc8r6jL8J-219" target="8lU-gqcf_Vouc8r6jL8J-171">
          <mxGeometry width="80" relative="1" as="geometry">
            <mxPoint x="954" y="1385" as="sourcePoint" />
            <mxPoint x="1021" y="1385" as="targetPoint" />
          </mxGeometry>
        </mxCell>
        <mxCell id="8lU-gqcf_Vouc8r6jL8J-198" value="1.5&amp;nbsp;enviarEmailAlunoRecebimento(alunoId, quantidade, mensagem)" style="html=1;verticalAlign=bottom;endArrow=block;curved=0;rounded=0;strokeColor=#457B9D;fontColor=#1D3557;fillColor=#A8DADC;entryX=0;entryY=0;entryDx=0;entryDy=5;entryPerimeter=0;" edge="1" parent="1" source="8lU-gqcf_Vouc8r6jL8J-220" target="8lU-gqcf_Vouc8r6jL8J-245">
          <mxGeometry width="80" relative="1" as="geometry">
            <mxPoint x="956" y="1415" as="sourcePoint" />
            <mxPoint x="1020" y="1415" as="targetPoint" />
          </mxGeometry>
        </mxCell>
        <mxCell id="8lU-gqcf_Vouc8r6jL8J-199" value="1.6 confirmaEnvioSucesso()" style="html=1;verticalAlign=bottom;endArrow=open;dashed=1;endSize=8;curved=0;rounded=0;strokeColor=#457B9D;fontColor=#1D3557;fillColor=#A8DADC;" edge="1" parent="1">
          <mxGeometry relative="1" as="geometry">
            <mxPoint x="584" y="1465" as="sourcePoint" />
            <mxPoint x="287" y="1464" as="targetPoint" />
          </mxGeometry>
        </mxCell>
        <mxCell id="8lU-gqcf_Vouc8r6jL8J-200" value="opt [saldoInvalido]" style="shape=umlFrame;whiteSpace=wrap;html=1;pointerEvents=0;strokeColor=#457B9D;fontColor=#1D3557;fillColor=#A8DADC;width=179;height=26;" vertex="1" parent="1">
          <mxGeometry x="221" y="1493" width="1729" height="90" as="geometry" />
        </mxCell>
        <mxCell id="8lU-gqcf_Vouc8r6jL8J-201" value="1.2.2 notificarSaldoInsuficiente()" style="html=1;verticalAlign=bottom;endArrow=open;dashed=1;endSize=8;curved=0;rounded=0;strokeColor=#457B9D;fontColor=#1D3557;fillColor=#A8DADC;" edge="1" parent="1">
          <mxGeometry relative="1" as="geometry">
            <mxPoint x="579.83" y="1562" as="sourcePoint" />
            <mxPoint x="287" y="1562" as="targetPoint" />
          </mxGeometry>
        </mxCell>
        <mxCell id="8lU-gqcf_Vouc8r6jL8J-202" value="2. solicitarResgateVantagem(vantagemID)" style="html=1;verticalAlign=bottom;endArrow=block;curved=0;rounded=0;strokeColor=#457B9D;fontColor=#1D3557;fillColor=#A8DADC;" edge="1" parent="1">
          <mxGeometry width="80" relative="1" as="geometry">
            <mxPoint x="363" y="1617" as="sourcePoint" />
            <mxPoint x="580" y="1617" as="targetPoint" />
          </mxGeometry>
        </mxCell>
        <mxCell id="8lU-gqcf_Vouc8r6jL8J-203" value="2.1 processarResgateVantagem(alunoID, vantagemID)" style="html=1;verticalAlign=bottom;endArrow=block;curved=0;rounded=0;strokeColor=#457B9D;fontColor=#1D3557;fillColor=#A8DADC;" edge="1" parent="1" target="8lU-gqcf_Vouc8r6jL8J-226">
          <mxGeometry width="80" relative="1" as="geometry">
            <mxPoint x="592" y="1649" as="sourcePoint" />
            <mxPoint x="668" y="1649" as="targetPoint" />
          </mxGeometry>
        </mxCell>
        <mxCell id="8lU-gqcf_Vouc8r6jL8J-204" value="2.2 validaSaldo(vantagem, custo)" style="html=1;verticalAlign=bottom;endArrow=block;curved=0;rounded=0;strokeColor=#457B9D;fontColor=#1D3557;fillColor=#A8DADC;" edge="1" parent="1">
          <mxGeometry width="80" relative="1" as="geometry">
            <mxPoint x="946" y="1681" as="sourcePoint" />
            <mxPoint x="1271" y="1681" as="targetPoint" />
          </mxGeometry>
        </mxCell>
        <mxCell id="8lU-gqcf_Vouc8r6jL8J-205" value="2.2.1 saldoValido/saldoInvalido" style="html=1;verticalAlign=bottom;endArrow=open;dashed=1;endSize=8;curved=0;rounded=0;strokeColor=#457B9D;fontColor=#1D3557;fillColor=#A8DADC;" edge="1" parent="1" source="8lU-gqcf_Vouc8r6jL8J-228" target="8lU-gqcf_Vouc8r6jL8J-168">
          <mxGeometry x="NaN" y="138" relative="1" as="geometry">
            <mxPoint x="1278" y="1722" as="sourcePoint" />
            <mxPoint x="1198" y="1722" as="targetPoint" />
            <mxPoint x="138" y="-3" as="offset" />
          </mxGeometry>
        </mxCell>
        <mxCell id="8lU-gqcf_Vouc8r6jL8J-206" value="opt [saldoValido]" style="shape=umlFrame;whiteSpace=wrap;html=1;pointerEvents=0;strokeColor=#457B9D;fontColor=#1D3557;fillColor=#A8DADC;width=189;height=31;" vertex="1" parent="1">
          <mxGeometry x="225" y="1741" width="1729" height="200" as="geometry" />
        </mxCell>
        <mxCell id="8lU-gqcf_Vouc8r6jL8J-207" value="2.3&amp;nbsp;gerarCupom(alunoId, vantagemId, codigo)" style="html=1;verticalAlign=bottom;endArrow=block;curved=0;rounded=0;strokeColor=#457B9D;fontColor=#1D3557;fillColor=#A8DADC;" edge="1" parent="1" source="8lU-gqcf_Vouc8r6jL8J-231">
          <mxGeometry width="80" relative="1" as="geometry">
            <mxPoint x="959" y="1781" as="sourcePoint" />
            <mxPoint x="1692" y="1788" as="targetPoint" />
          </mxGeometry>
        </mxCell>
        <mxCell id="8lU-gqcf_Vouc8r6jL8J-208" value="2.4 debitarSaldo(vantagem.custo)" style="html=1;verticalAlign=bottom;endArrow=block;curved=0;rounded=0;strokeColor=#457B9D;fontColor=#1D3557;fillColor=#A8DADC;exitX=1;exitY=1;exitDx=0;exitDy=-5;exitPerimeter=0;" edge="1" parent="1" source="8lU-gqcf_Vouc8r6jL8J-232">
          <mxGeometry width="80" relative="1" as="geometry">
            <mxPoint x="961" y="1818" as="sourcePoint" />
            <mxPoint x="1271" y="1815" as="targetPoint" />
          </mxGeometry>
        </mxCell>
        <mxCell id="8lU-gqcf_Vouc8r6jL8J-209" value="2.5&amp;nbsp;&amp;nbsp;enviarEmailAluno(cupom, codigo)" style="html=1;verticalAlign=bottom;endArrow=block;curved=0;rounded=0;strokeColor=#457B9D;fontColor=#1D3557;fillColor=#A8DADC;exitX=1;exitY=1;exitDx=0;exitDy=-5;exitPerimeter=0;" edge="1" parent="1" source="8lU-gqcf_Vouc8r6jL8J-233">
          <mxGeometry width="80" relative="1" as="geometry">
            <mxPoint x="959" y="1863" as="sourcePoint" />
            <mxPoint x="1848" y="1860" as="targetPoint" />
          </mxGeometry>
        </mxCell>
        <mxCell id="8lU-gqcf_Vouc8r6jL8J-210" value="2.6&amp;nbsp;enviarEmailEmpresa(cupom, codigo)" style="html=1;verticalAlign=bottom;endArrow=block;curved=0;rounded=0;strokeColor=#457B9D;fontColor=#1D3557;fillColor=#A8DADC;exitX=1;exitY=0;exitDx=0;exitDy=5;exitPerimeter=0;" edge="1" parent="1" source="8lU-gqcf_Vouc8r6jL8J-234" target="8lU-gqcf_Vouc8r6jL8J-246">
          <mxGeometry width="80" relative="1" as="geometry">
            <mxPoint x="962" y="1899" as="sourcePoint" />
            <mxPoint x="1020" y="1899" as="targetPoint" />
          </mxGeometry>
        </mxCell>
        <mxCell id="8lU-gqcf_Vouc8r6jL8J-211" value="2.7 confirmaResgateSucesso()" style="html=1;verticalAlign=bottom;endArrow=open;dashed=1;endSize=8;curved=0;rounded=0;strokeColor=#457B9D;fontColor=#1D3557;fillColor=#A8DADC;" edge="1" parent="1">
          <mxGeometry relative="1" as="geometry">
            <mxPoint x="580" y="1928" as="sourcePoint" />
            <mxPoint x="368" y="1927" as="targetPoint" />
          </mxGeometry>
        </mxCell>
        <mxCell id="8lU-gqcf_Vouc8r6jL8J-212" value="opt [saldoInvalido]" style="shape=umlFrame;whiteSpace=wrap;html=1;pointerEvents=0;strokeColor=#457B9D;fontColor=#1D3557;fillColor=#A8DADC;width=179;height=26;" vertex="1" parent="1">
          <mxGeometry x="225" y="1941" width="1729" height="102" as="geometry" />
        </mxCell>
        <mxCell id="8lU-gqcf_Vouc8r6jL8J-213" value="2.3 notificarSaldoInsuficiente()" style="html=1;verticalAlign=bottom;endArrow=open;dashed=1;endSize=8;curved=0;rounded=0;strokeColor=#457B9D;fontColor=#1D3557;fillColor=#A8DADC;" edge="1" parent="1">
          <mxGeometry relative="1" as="geometry">
            <mxPoint x="583" y="2019" as="sourcePoint" />
            <mxPoint x="361.32352941176487" y="2019" as="targetPoint" />
          </mxGeometry>
        </mxCell>
        <mxCell id="8lU-gqcf_Vouc8r6jL8J-221" value="" style="html=1;points=[[0,0,0,0,5],[0,1,0,0,-5],[1,0,0,0,5],[1,1,0,0,-5]];perimeter=orthogonalPerimeter;outlineConnect=0;targetShapes=umlLifeline;portConstraint=eastwest;newEdgeStyle={&quot;curved&quot;:0,&quot;rounded&quot;:0};strokeColor=#457B9D;fontColor=#1D3557;fillColor=#A8DADC;" vertex="1" parent="1">
          <mxGeometry x="581" y="1462" width="10" height="103" as="geometry" />
        </mxCell>
        <mxCell id="8lU-gqcf_Vouc8r6jL8J-229" value="" style="html=1;verticalAlign=bottom;endArrow=open;dashed=1;endSize=8;curved=0;rounded=0;strokeColor=#457B9D;fontColor=#1D3557;fillColor=#A8DADC;" edge="1" parent="1" target="8lU-gqcf_Vouc8r6jL8J-228">
          <mxGeometry relative="1" as="geometry">
            <mxPoint x="1278" y="1722" as="sourcePoint" />
            <mxPoint x="940" y="1722" as="targetPoint" />
          </mxGeometry>
        </mxCell>
        <mxCell id="8lU-gqcf_Vouc8r6jL8J-228" value="" style="html=1;points=[[0,0,0,0,5],[0,1,0,0,-5],[1,0,0,0,5],[1,1,0,0,-5]];perimeter=orthogonalPerimeter;outlineConnect=0;targetShapes=umlLifeline;portConstraint=eastwest;newEdgeStyle={&quot;curved&quot;:0,&quot;rounded&quot;:0};strokeColor=#457B9D;fontColor=#1D3557;fillColor=#A8DADC;" vertex="1" parent="1">
          <mxGeometry x="935" y="1719" width="10" height="12" as="geometry" />
        </mxCell>
        <mxCell id="8lU-gqcf_Vouc8r6jL8J-231" value="" style="html=1;points=[[0,0,0,0,5],[0,1,0,0,-5],[1,0,0,0,5],[1,1,0,0,-5]];perimeter=orthogonalPerimeter;outlineConnect=0;targetShapes=umlLifeline;portConstraint=eastwest;newEdgeStyle={&quot;curved&quot;:0,&quot;rounded&quot;:0};strokeColor=#457B9D;fontColor=#1D3557;fillColor=#A8DADC;" vertex="1" parent="1">
          <mxGeometry x="941" y="1784" width="10" height="8" as="geometry" />
        </mxCell>
        <mxCell id="8lU-gqcf_Vouc8r6jL8J-232" value="" style="html=1;points=[[0,0,0,0,5],[0,1,0,0,-5],[1,0,0,0,5],[1,1,0,0,-5]];perimeter=orthogonalPerimeter;outlineConnect=0;targetShapes=umlLifeline;portConstraint=eastwest;newEdgeStyle={&quot;curved&quot;:0,&quot;rounded&quot;:0};strokeColor=#457B9D;fontColor=#1D3557;fillColor=#A8DADC;" vertex="1" parent="1">
          <mxGeometry x="941" y="1814" width="10" height="8" as="geometry" />
        </mxCell>
        <mxCell id="8lU-gqcf_Vouc8r6jL8J-245" value="" style="html=1;points=[[0,0,0,0,5],[0,1,0,0,-5],[1,0,0,0,5],[1,1,0,0,-5]];perimeter=orthogonalPerimeter;outlineConnect=0;targetShapes=umlLifeline;portConstraint=eastwest;newEdgeStyle={&quot;curved&quot;:0,&quot;rounded&quot;:0};strokeColor=#457B9D;fontColor=#1D3557;fillColor=#A8DADC;" vertex="1" parent="1">
          <mxGeometry x="1848" y="1411" width="10" height="38" as="geometry" />
        </mxCell>
        <mxCell id="8lU-gqcf_Vouc8r6jL8J-246" value="" style="html=1;points=[[0,0,0,0,5],[0,1,0,0,-5],[1,0,0,0,5],[1,1,0,0,-5]];perimeter=orthogonalPerimeter;outlineConnect=0;targetShapes=umlLifeline;portConstraint=eastwest;newEdgeStyle={&quot;curved&quot;:0,&quot;rounded&quot;:0};strokeColor=#457B9D;fontColor=#1D3557;fillColor=#A8DADC;" vertex="1" parent="1">
          <mxGeometry x="1849" y="1860" width="10" height="49" as="geometry" />
        </mxCell>
        <mxCell id="8lU-gqcf_Vouc8r6jL8J-249" value="" style="html=1;points=[[0,0,0,0,5],[0,1,0,0,-5],[1,0,0,0,5],[1,1,0,0,-5]];perimeter=orthogonalPerimeter;outlineConnect=0;targetShapes=umlLifeline;portConstraint=eastwest;newEdgeStyle={&quot;curved&quot;:0,&quot;rounded&quot;:0};strokeColor=#457B9D;fontColor=#1D3557;fillColor=#A8DADC;" vertex="1" parent="1">
          <mxGeometry x="1272" y="1813" width="10" height="21" as="geometry" />
        </mxCell>
      </root>
    </mxGraphModel>
  </diagram>
</mxfile>
